mtllib kallax_materials.mtl

o Outer_Left
usemtl WhiteLaminate
v -55.721250 0.000000 -19.526250
v -52.121250 0.000000 -19.526250
v -52.121250 146.367500 -19.526250
v -55.721250 146.367500 -19.526250
v -55.721250 0.000000 19.526250
v -52.121250 0.000000 19.526250
v -52.121250 146.367500 19.526250
v -55.721250 146.367500 19.526250
vt 0.000000 0.000000
vt 1.000000 0.000000
vt 1.000000 1.000000
vt 0.000000 1.000000
vt 0.000000 0.000000
vt 1.000000 0.000000
vt 1.000000 1.000000
vt 0.000000 1.000000
vn 0.000000 0.000000 -1.000000
vn 0.000000 0.000000 -1.000000
vn 0.000000 0.000000 1.000000
vn 0.000000 0.000000 1.000000
vn 0.000000 -1.000000 0.000000
vn 0.000000 -1.000000 0.000000
vn 0.000000 1.000000 0.000000
vn 0.000000 1.000000 0.000000
vn -1.000000 0.000000 0.000000
vn -1.000000 0.000000 0.000000
vn 1.000000 0.000000 0.000000
vn 1.000000 0.000000 0.000000
f 1/1/1 3/3/1 2/2/1
f 1/1/2 4/4/2 3/3/2
f 5/5/3 6/6/3 7/7/3
f 5/5/4 7/7/4 8/8/4
f 1/1/5 2/2/5 6/6/5
f 1/1/6 6/6/6 5/5/6
f 4/4/7 8/8/7 7/7/7
f 4/4/8 7/7/8 3/3/8
f 1/1/9 5/5/9 8/8/9
f 1/1/10 8/8/10 4/4/10
f 2/2/11 3/3/11 7/7/11
f 2/2/12 7/7/12 6/6/12

o Outer_Right
usemtl WhiteLaminate
v 52.121250 0.000000 -19.526250
v 55.721250 0.000000 -19.526250
v 55.721250 146.367500 -19.526250
v 52.121250 146.367500 -19.526250
v 52.121250 0.000000 19.526250
v 55.721250 0.000000 19.526250
v 55.721250 146.367500 19.526250
v 52.121250 146.367500 19.526250
vt 0.000000 0.000000
vt 1.000000 0.000000
vt 1.000000 1.000000
vt 0.000000 1.000000
vt 0.000000 0.000000
vt 1.000000 0.000000
vt 1.000000 1.000000
vt 0.000000 1.000000
vn 0.000000 0.000000 -1.000000
vn 0.000000 0.000000 -1.000000
vn 0.000000 0.000000 1.000000
vn 0.000000 0.000000 1.000000
vn 0.000000 -1.000000 0.000000
vn 0.000000 -1.000000 0.000000
vn 0.000000 1.000000 0.000000
vn 0.000000 1.000000 0.000000
vn -1.000000 0.000000 0.000000
vn -1.000000 0.000000 0.000000
vn 1.000000 0.000000 0.000000
vn 1.000000 0.000000 0.000000
f 9/9/13 11/11/13 10/10/13
f 9/9/14 12/12/14 11/11/14
f 13/13/15 14/14/15 15/15/15
f 13/13/16 15/15/16 16/16/16
f 9/9/17 10/10/17 14/14/17
f 9/9/18 14/14/18 13/13/18
f 12/12/19 16/16/19 15/15/19
f 12/12/20 15/15/20 11/11/20
f 9/9/21 13/13/21 16/16/21
f 9/9/22 16/16/22 12/12/22
f 10/10/23 11/11/23 15/15/23
f 10/10/24 15/15/24 14/14/24

o Outer_Bottom
usemtl WhiteLaminate
v -52.121250 0.000000 -19.526250
v 52.121250 0.000000 -19.526250
v 52.121250 3.600000 -19.526250
v -52.121250 3.600000 -19.526250
v -52.121250 0.000000 19.526250
v 52.121250 0.000000 19.526250
v 52.121250 3.600000 19.526250
v -52.121250 3.600000 19.526250
vt 0.000000 0.000000
vt 1.000000 0.000000
vt 1.000000 1.000000
vt 0.000000 1.000000
vt 0.000000 0.000000
vt 1.000000 0.000000
vt 1.000000 1.000000
vt 0.000000 1.000000
vn 0.000000 0.000000 -1.000000
vn 0.000000 0.000000 -1.000000
vn 0.000000 0.000000 1.000000
vn 0.000000 0.000000 1.000000
vn 0.000000 -1.000000 0.000000
vn 0.000000 -1.000000 0.000000
vn 0.000000 1.000000 0.000000
vn 0.000000 1.000000 0.000000
vn -1.000000 0.000000 0.000000
vn -1.000000 0.000000 0.000000
vn 1.000000 0.000000 0.000000
vn 1.000000 0.000000 0.000000
f 17/17/25 19/19/25 18/18/25
f 17/17/26 20/20/26 19/19/26
f 21/21/27 22/22/27 23/23/27
f 21/21/28 23/23/28 24/24/28
f 17/17/29 18/18/29 22/22/29
f 17/17/30 22/22/30 21/21/30
f 20/20/31 24/24/31 23/23/31
f 20/20/32 23/23/32 19/19/32
f 17/17/33 21/21/33 24/24/33
f 17/17/34 24/24/34 20/20/34
f 18/18/35 19/19/35 23/23/35
f 18/18/36 23/23/36 22/22/36

o Outer_Top
usemtl WhiteLaminate
v -52.121250 142.767500 -19.526250
v 52.121250 142.767500 -19.526250
v 52.121250 146.367500 -19.526250
v -52.121250 146.367500 -19.526250
v -52.121250 142.767500 19.526250
v 52.121250 142.767500 19.526250
v 52.121250 146.367500 19.526250
v -52.121250 146.367500 19.526250
vt 0.000000 0.000000
vt 1.000000 0.000000
vt 1.000000 1.000000
vt 0.000000 1.000000
vt 0.000000 0.000000
vt 1.000000 0.000000
vt 1.000000 1.000000
vt 0.000000 1.000000
vn 0.000000 0.000000 -1.000000
vn 0.000000 0.000000 -1.000000
vn 0.000000 0.000000 1.000000
vn 0.000000 0.000000 1.000000
vn 0.000000 -1.000000 0.000000
vn 0.000000 -1.000000 0.000000
vn 0.000000 1.000000 0.000000
vn 0.000000 1.000000 0.000000
vn -1.000000 0.000000 0.000000
vn -1.000000 0.000000 0.000000
vn 1.000000 0.000000 0.000000
vn 1.000000 0.000000 0.000000
f 25/25/37 27/27/37 26/26/37
f 25/25/38 28/28/38 27/27/38
f 29/29/39 30/30/39 31/31/39
f 29/29/40 31/31/40 32/32/40
f 25/25/41 26/26/41 30/30/41
f 25/25/42 30/30/42 29/29/42
f 28/28/43 32/32/43 31/31/43
f 28/28/44 31/31/44 27/27/44
f 25/25/45 29/29/45 32/32/45
f 25/25/46 32/32/46 28/28/46
f 26/26/47 27/27/47 31/31/47
f 26/26/48 31/31/48 30/30/48

o Internal_Shelf_1
usemtl WhiteLaminate
v -52.121250 37.116875 -19.526250
v 52.121250 37.116875 -19.526250
v 52.121250 38.816875 -19.526250
v -52.121250 38.816875 -19.526250
v -52.121250 37.116875 19.526250
v 52.121250 37.116875 19.526250
v 52.121250 38.816875 19.526250
v -52.121250 38.816875 19.526250
vt 0.000000 0.000000
vt 1.000000 0.000000
vt 1.000000 1.000000
vt 0.000000 1.000000
vt 0.000000 0.000000
vt 1.000000 0.000000
vt 1.000000 1.000000
vt 0.000000 1.000000
vn 0.000000 0.000000 -1.000000
vn 0.000000 0.000000 -1.000000
vn 0.000000 0.000000 1.000000
vn 0.000000 0.000000 1.000000
vn 0.000000 -1.000000 0.000000
vn 0.000000 -1.000000 0.000000
vn 0.000000 1.000000 0.000000
vn 0.000000 1.000000 0.000000
vn -1.000000 0.000000 0.000000
vn -1.000000 0.000000 0.000000
vn 1.000000 0.000000 0.000000
vn 1.000000 0.000000 0.000000
f 33/33/49 35/35/49 34/34/49
f 33/33/50 36/36/50 35/35/50
f 37/37/51 38/38/51 39/39/51
f 37/37/52 39/39/52 40/40/52
f 33/33/53 34/34/53 38/38/53
f 33/33/54 38/38/54 37/37/54
f 36/36/55 40/40/55 39/39/55
f 36/36/56 39/39/56 35/35/56
f 33/33/57 37/37/57 40/40/57
f 33/33/58 40/40/58 36/36/58
f 34/34/59 35/35/59 39/39/59
f 34/34/60 39/39/60 38/38/60

o Internal_Shelf_2
usemtl WhiteLaminate
v -52.121250 72.333750 -19.526250
v 52.121250 72.333750 -19.526250
v 52.121250 74.033750 -19.526250
v -52.121250 74.033750 -19.526250
v -52.121250 72.333750 19.526250
v 52.121250 72.333750 19.526250
v 52.121250 74.033750 19.526250
v -52.121250 74.033750 19.526250
vt 0.000000 0.000000
vt 1.000000 0.000000
vt 1.000000 1.000000
vt 0.000000 1.000000
vt 0.000000 0.000000
vt 1.000000 0.000000
vt 1.000000 1.000000
vt 0.000000 1.000000
vn 0.000000 0.000000 -1.000000
vn 0.000000 0.000000 -1.000000
vn 0.000000 0.000000 1.000000
vn 0.000000 0.000000 1.000000
vn 0.000000 -1.000000 0.000000
vn 0.000000 -1.000000 0.000000
vn 0.000000 1.000000 0.000000
vn 0.000000 1.000000 0.000000
vn -1.000000 0.000000 0.000000
vn -1.000000 0.000000 0.000000
vn 1.000000 0.000000 0.000000
vn 1.000000 0.000000 0.000000
f 41/41/61 43/43/61 42/42/61
f 41/41/62 44/44/62 43/43/62
f 45/45/63 46/46/63 47/47/63
f 45/45/64 47/47/64 48/48/64
f 41/41/65 42/42/65 46/46/65
f 41/41/66 46/46/66 45/45/66
f 44/44/67 48/48/67 47/47/67
f 44/44/68 47/47/68 43/43/68
f 41/41/69 45/45/69 48/48/69
f 41/41/70 48/48/70 44/44/70
f 42/42/71 43/43/71 47/47/71
f 42/42/72 47/47/72 46/46/72

o Internal_Shelf_3
usemtl WhiteLaminate
v -52.121250 107.550625 -19.526250
v 52.121250 107.550625 -19.526250
v 52.121250 109.250625 -19.526250
v -52.121250 109.250625 -19.526250
v -52.121250 107.550625 19.526250
v 52.121250 107.550625 19.526250
v 52.121250 109.250625 19.526250
v -52.121250 109.250625 19.526250
vt 0.000000 0.000000
vt 1.000000 0.000000
vt 1.000000 1.000000
vt 0.000000 1.000000
vt 0.000000 0.000000
vt 1.000000 0.000000
vt 1.000000 1.000000
vt 0.000000 1.000000
vn 0.000000 0.000000 -1.000000
vn 0.000000 0.000000 -1.000000
vn 0.000000 0.000000 1.000000
vn 0.000000 0.000000 1.000000
vn 0.000000 -1.000000 0.000000
vn 0.000000 -1.000000 0.000000
vn 0.000000 1.000000 0.000000
vn 0.000000 1.000000 0.000000
vn -1.000000 0.000000 0.000000
vn -1.000000 0.000000 0.000000
vn 1.000000 0.000000 0.000000
vn 1.000000 0.000000 0.000000
f 49/49/73 51/51/73 50/50/73
f 49/49/74 52/52/74 51/51/74
f 53/53/75 54/54/75 55/55/75
f 53/53/76 55/55/76 56/56/76
f 49/49/77 50/50/77 54/54/77
f 49/49/78 54/54/78 53/53/78
f 52/52/79 56/56/79 55/55/79
f 52/52/80 55/55/80 51/51/80
f 49/49/81 53/53/81 56/56/81
f 49/49/82 56/56/82 52/52/82
f 50/50/83 51/51/83 55/55/83
f 50/50/84 55/55/84 54/54/84

o Divider_C1_R1
usemtl WhiteLaminate
v -18.507083 3.600000 -19.526250
v -16.807083 3.600000 -19.526250
v -16.807083 37.116875 -19.526250
v -18.507083 37.116875 -19.526250
v -18.507083 3.600000 19.526250
v -16.807083 3.600000 19.526250
v -16.807083 37.116875 19.526250
v -18.507083 37.116875 19.526250
vt 0.000000 0.000000
vt 1.000000 0.000000
vt 1.000000 1.000000
vt 0.000000 1.000000
vt 0.000000 0.000000
vt 1.000000 0.000000
vt 1.000000 1.000000
vt 0.000000 1.000000
vn 0.000000 0.000000 -1.000000
vn 0.000000 0.000000 -1.000000
vn 0.000000 0.000000 1.000000
vn 0.000000 0.000000 1.000000
vn 0.000000 -1.000000 0.000000
vn 0.000000 -1.000000 0.000000
vn 0.000000 1.000000 0.000000
vn 0.000000 1.000000 0.000000
vn -1.000000 0.000000 0.000000
vn -1.000000 0.000000 0.000000
vn 1.000000 0.000000 0.000000
vn 1.000000 0.000000 0.000000
f 57/57/85 59/59/85 58/58/85
f 57/57/86 60/60/86 59/59/86
f 61/61/87 62/62/87 63/63/87
f 61/61/88 63/63/88 64/64/88
f 57/57/89 58/58/89 62/62/89
f 57/57/90 62/62/90 61/61/90
f 60/60/91 64/64/91 63/63/91
f 60/60/92 63/63/92 59/59/92
f 57/57/93 61/61/93 64/64/93
f 57/57/94 64/64/94 60/60/94
f 58/58/95 59/59/95 63/63/95
f 58/58/96 63/63/96 62/62/96

o Divider_C1_R2
usemtl WhiteLaminate
v -18.507083 38.816875 -19.526250
v -16.807083 38.816875 -19.526250
v -16.807083 72.333750 -19.526250
v -18.507083 72.333750 -19.526250
v -18.507083 38.816875 19.526250
v -16.807083 38.816875 19.526250
v -16.807083 72.333750 19.526250
v -18.507083 72.333750 19.526250
vt 0.000000 0.000000
vt 1.000000 0.000000
vt 1.000000 1.000000
vt 0.000000 1.000000
vt 0.000000 0.000000
vt 1.000000 0.000000
vt 1.000000 1.000000
vt 0.000000 1.000000
vn 0.000000 0.000000 -1.000000
vn 0.000000 0.000000 -1.000000
vn 0.000000 0.000000 1.000000
vn 0.000000 0.000000 1.000000
vn 0.000000 -1.000000 0.000000
vn 0.000000 -1.000000 0.000000
vn 0.000000 1.000000 0.000000
vn 0.000000 1.000000 0.000000
vn -1.000000 0.000000 0.000000
vn -1.000000 0.000000 0.000000
vn 1.000000 0.000000 0.000000
vn 1.000000 0.000000 0.000000
f 65/65/97 67/67/97 66/66/97
f 65/65/98 68/68/98 67/67/98
f 69/69/99 70/70/99 71/71/99
f 69/69/100 71/71/100 72/72/100
f 65/65/101 66/66/101 70/70/101
f 65/65/102 70/70/102 69/69/102
f 68/68/103 72/72/103 71/71/103
f 68/68/104 71/71/104 67/67/104
f 65/65/105 69/69/105 72/72/105
f 65/65/106 72/72/106 68/68/106
f 66/66/107 67/67/107 71/71/107
f 66/66/108 71/71/108 70/70/108

o Divider_C1_R3
usemtl WhiteLaminate
v -18.507083 74.033750 -19.526250
v -16.807083 74.033750 -19.526250
v -16.807083 107.550625 -19.526250
v -18.507083 107.550625 -19.526250
v -18.507083 74.033750 19.526250
v -16.807083 74.033750 19.526250
v -16.807083 107.550625 19.526250
v -18.507083 107.550625 19.526250
vt 0.000000 0.000000
vt 1.000000 0.000000
vt 1.000000 1.000000
vt 0.000000 1.000000
vt 0.000000 0.000000
vt 1.000000 0.000000
vt 1.000000 1.000000
vt 0.000000 1.000000
vn 0.000000 0.000000 -1.000000
vn 0.000000 0.000000 -1.000000
vn 0.000000 0.000000 1.000000
vn 0.000000 0.000000 1.000000
vn 0.000000 -1.000000 0.000000
vn 0.000000 -1.000000 0.000000
vn 0.000000 1.000000 0.000000
vn 0.000000 1.000000 0.000000
vn -1.000000 0.000000 0.000000
vn -1.000000 0.000000 0.000000
vn 1.000000 0.000000 0.000000
vn 1.000000 0.000000 0.000000
f 73/73/109 75/75/109 74/74/109
f 73/73/110 76/76/110 75/75/110
f 77/77/111 78/78/111 79/79/111
f 77/77/112 79/79/112 80/80/112
f 73/73/113 74/74/113 78/78/113
f 73/73/114 78/78/114 77/77/114
f 76/76/115 80/80/115 79/79/115
f 76/76/116 79/79/116 75/75/116
f 73/73/117 77/77/117 80/80/117
f 73/73/118 80/80/118 76/76/118
f 74/74/119 75/75/119 79/79/119
f 74/74/120 79/79/120 78/78/120

o Divider_C1_R4
usemtl WhiteLaminate
v -18.507083 109.250625 -19.526250
v -16.807083 109.250625 -19.526250
v -16.807083 142.767500 -19.526250
v -18.507083 142.767500 -19.526250
v -18.507083 109.250625 19.526250
v -16.807083 109.250625 19.526250
v -16.807083 142.767500 19.526250
v -18.507083 142.767500 19.526250
vt 0.000000 0.000000
vt 1.000000 0.000000
vt 1.000000 1.000000
vt 0.000000 1.000000
vt 0.000000 0.000000
vt 1.000000 0.000000
vt 1.000000 1.000000
vt 0.000000 1.000000
vn 0.000000 0.000000 -1.000000
vn 0.000000 0.000000 -1.000000
vn 0.000000 0.000000 1.000000
vn 0.000000 0.000000 1.000000
vn 0.000000 -1.000000 0.000000
vn 0.000000 -1.000000 0.000000
vn 0.000000 1.000000 0.000000
vn 0.000000 1.000000 0.000000
vn -1.000000 0.000000 0.000000
vn -1.000000 0.000000 0.000000
vn 1.000000 0.000000 0.000000
vn 1.000000 0.000000 0.000000
f 81/81/121 83/83/121 82/82/121
f 81/81/122 84/84/122 83/83/122
f 85/85/123 86/86/123 87/87/123
f 85/85/124 87/87/124 88/88/124
f 81/81/125 82/82/125 86/86/125
f 81/81/126 86/86/126 85/85/126
f 84/84/127 88/88/127 87/87/127
f 84/84/128 87/87/128 83/83/128
f 81/81/129 85/85/129 88/88/129
f 81/81/130 88/88/130 84/84/130
f 82/82/131 83/83/131 87/87/131
f 82/82/132 87/87/132 86/86/132

o Divider_C2_R1
usemtl WhiteLaminate
v 16.807083 3.600000 -19.526250
v 18.507083 3.600000 -19.526250
v 18.507083 37.116875 -19.526250
v 16.807083 37.116875 -19.526250
v 16.807083 3.600000 19.526250
v 18.507083 3.600000 19.526250
v 18.507083 37.116875 19.526250
v 16.807083 37.116875 19.526250
vt 0.000000 0.000000
vt 1.000000 0.000000
vt 1.000000 1.000000
vt 0.000000 1.000000
vt 0.000000 0.000000
vt 1.000000 0.000000
vt 1.000000 1.000000
vt 0.000000 1.000000
vn 0.000000 0.000000 -1.000000
vn 0.000000 0.000000 -1.000000
vn 0.000000 0.000000 1.000000
vn 0.000000 0.000000 1.000000
vn 0.000000 -1.000000 0.000000
vn 0.000000 -1.000000 0.000000
vn 0.000000 1.000000 0.000000
vn 0.000000 1.000000 0.000000
vn -1.000000 0.000000 0.000000
vn -1.000000 0.000000 0.000000
vn 1.000000 0.000000 0.000000
vn 1.000000 0.000000 0.000000
f 89/89/133 91/91/133 90/90/133
f 89/89/134 92/92/134 91/91/134
f 93/93/135 94/94/135 95/95/135
f 93/93/136 95/95/136 96/96/136
f 89/89/137 90/90/137 94/94/137
f 89/89/138 94/94/138 93/93/138
f 92/92/139 96/96/139 95/95/139
f 92/92/140 95/95/140 91/91/140
f 89/89/141 93/93/141 96/96/141
f 89/89/142 96/96/142 92/92/142
f 90/90/143 91/91/143 95/95/143
f 90/90/144 95/95/144 94/94/144

o Divider_C2_R2
usemtl WhiteLaminate
v 16.807083 38.816875 -19.526250
v 18.507083 38.816875 -19.526250
v 18.507083 72.333750 -19.526250
v 16.807083 72.333750 -19.526250
v 16.807083 38.816875 19.526250
v 18.507083 38.816875 19.526250
v 18.507083 72.333750 19.526250
v 16.807083 72.333750 19.526250
vt 0.000000 0.000000
vt 1.000000 0.000000
vt 1.000000 1.000000
vt 0.000000 1.000000
vt 0.000000 0.000000
vt 1.000000 0.000000
vt 1.000000 1.000000
vt 0.000000 1.000000
vn 0.000000 0.000000 -1.000000
vn 0.000000 0.000000 -1.000000
vn 0.000000 0.000000 1.000000
vn 0.000000 0.000000 1.000000
vn 0.000000 -1.000000 0.000000
vn 0.000000 -1.000000 0.000000
vn 0.000000 1.000000 0.000000
vn 0.000000 1.000000 0.000000
vn -1.000000 0.000000 0.000000
vn -1.000000 0.000000 0.000000
vn 1.000000 0.000000 0.000000
vn 1.000000 0.000000 0.000000
f 97/97/145 99/99/145 98/98/145
f 97/97/146 100/100/146 99/99/146
f 101/101/147 102/102/147 103/103/147
f 101/101/148 103/103/148 104/104/148
f 97/97/149 98/98/149 102/102/149
f 97/97/150 102/102/150 101/101/150
f 100/100/151 104/104/151 103/103/151
f 100/100/152 103/103/152 99/99/152
f 97/97/153 101/101/153 104/104/153
f 97/97/154 104/104/154 100/100/154
f 98/98/155 99/99/155 103/103/155
f 98/98/156 103/103/156 102/102/156

o Divider_C2_R3
usemtl WhiteLaminate
v 16.807083 74.033750 -19.526250
v 18.507083 74.033750 -19.526250
v 18.507083 107.550625 -19.526250
v 16.807083 107.550625 -19.526250
v 16.807083 74.033750 19.526250
v 18.507083 74.033750 19.526250
v 18.507083 107.550625 19.526250
v 16.807083 107.550625 19.526250
vt 0.000000 0.000000
vt 1.000000 0.000000
vt 1.000000 1.000000
vt 0.000000 1.000000
vt 0.000000 0.000000
vt 1.000000 0.000000
vt 1.000000 1.000000
vt 0.000000 1.000000
vn 0.000000 0.000000 -1.000000
vn 0.000000 0.000000 -1.000000
vn 0.000000 0.000000 1.000000
vn 0.000000 0.000000 1.000000
vn 0.000000 -1.000000 0.000000
vn 0.000000 -1.000000 0.000000
vn 0.000000 1.000000 0.000000
vn 0.000000 1.000000 0.000000
vn -1.000000 0.000000 0.000000
vn -1.000000 0.000000 0.000000
vn 1.000000 0.000000 0.000000
vn 1.000000 0.000000 0.000000
f 105/105/157 107/107/157 106/106/157
f 105/105/158 108/108/158 107/107/158
f 109/109/159 110/110/159 111/111/159
f 109/109/160 111/111/160 112/112/160
f 105/105/161 106/106/161 110/110/161
f 105/105/162 110/110/162 109/109/162
f 108/108/163 112/112/163 111/111/163
f 108/108/164 111/111/164 107/107/164
f 105/105/165 109/109/165 112/112/165
f 105/105/166 112/112/166 108/108/166
f 106/106/167 107/107/167 111/111/167
f 106/106/168 111/111/168 110/110/168

o Divider_C2_R4
usemtl WhiteLaminate
v 16.807083 109.250625 -19.526250
v 18.507083 109.250625 -19.526250
v 18.507083 142.767500 -19.526250
v 16.807083 142.767500 -19.526250
v 16.807083 109.250625 19.526250
v 18.507083 109.250625 19.526250
v 18.507083 142.767500 19.526250
v 16.807083 142.767500 19.526250
vt 0.000000 0.000000
vt 1.000000 0.000000
vt 1.000000 1.000000
vt 0.000000 1.000000
vt 0.000000 0.000000
vt 1.000000 0.000000
vt 1.000000 1.000000
vt 0.000000 1.000000
vn 0.000000 0.000000 -1.000000
vn 0.000000 0.000000 -1.000000
vn 0.000000 0.000000 1.000000
vn 0.000000 0.000000 1.000000
vn 0.000000 -1.000000 0.000000
vn 0.000000 -1.000000 0.000000
vn 0.000000 1.000000 0.000000
vn 0.000000 1.000000 0.000000
vn -1.000000 0.000000 0.000000
vn -1.000000 0.000000 0.000000
vn 1.000000 0.000000 0.000000
vn 1.000000 0.000000 0.000000
f 113/113/169 115/115/169 114/114/169
f 113/113/170 116/116/170 115/115/170
f 117/117/171 118/118/171 119/119/171
f 117/117/172 119/119/172 120/120/172
f 113/113/173 114/114/173 118/118/173
f 113/113/174 118/118/174 117/117/174
f 116/116/175 120/120/175 119/119/175
f 116/116/176 119/119/176 115/115/176
f 113/113/177 117/117/177 120/120/177
f 113/113/178 120/120/178 116/116/178
f 114/114/179 115/115/179 119/119/179
f 114/114/180 119/119/180 118/118/180

o Edge_Left
usemtl WhiteEdge
v -55.721250 0.000000 -19.626250
v -52.121250 0.000000 -19.626250
v -52.121250 146.367500 -19.626250
v -55.721250 146.367500 -19.626250
v -55.721250 0.000000 -19.506250
v -52.121250 0.000000 -19.506250
v -52.121250 146.367500 -19.506250
v -55.721250 146.367500 -19.506250
vt 0.000000 0.000000
vt 1.000000 0.000000
vt 1.000000 1.000000
vt 0.000000 1.000000
vt 0.000000 0.000000
vt 1.000000 0.000000
vt 1.000000 1.000000
vt 0.000000 1.000000
vn 0.000000 0.000000 -1.000000
vn 0.000000 0.000000 -1.000000
vn 0.000000 0.000000 1.000000
vn 0.000000 0.000000 1.000000
vn 0.000000 -1.000000 0.000000
vn 0.000000 -1.000000 0.000000
vn 0.000000 1.000000 0.000000
vn 0.000000 1.000000 0.000000
vn -1.000000 0.000000 0.000000
vn -1.000000 0.000000 0.000000
vn 1.000000 0.000000 0.000000
vn 1.000000 0.000000 0.000000
f 121/121/181 123/123/181 122/122/181
f 121/121/182 124/124/182 123/123/182
f 125/125/183 126/126/183 127/127/183
f 125/125/184 127/127/184 128/128/184
f 121/121/185 122/122/185 126/126/185
f 121/121/186 126/126/186 125/125/186
f 124/124/187 128/128/187 127/127/187
f 124/124/188 127/127/188 123/123/188
f 121/121/189 125/125/189 128/128/189
f 121/121/190 128/128/190 124/124/190
f 122/122/191 123/123/191 127/127/191
f 122/122/192 127/127/192 126/126/192

o Edge_Right
usemtl WhiteEdge
v 52.121250 0.000000 -19.626250
v 55.721250 0.000000 -19.626250
v 55.721250 146.367500 -19.626250
v 52.121250 146.367500 -19.626250
v 52.121250 0.000000 -19.506250
v 55.721250 0.000000 -19.506250
v 55.721250 146.367500 -19.506250
v 52.121250 146.367500 -19.506250
vt 0.000000 0.000000
vt 1.000000 0.000000
vt 1.000000 1.000000
vt 0.000000 1.000000
vt 0.000000 0.000000
vt 1.000000 0.000000
vt 1.000000 1.000000
vt 0.000000 1.000000
vn 0.000000 0.000000 -1.000000
vn 0.000000 0.000000 -1.000000
vn 0.000000 0.000000 1.000000
vn 0.000000 0.000000 1.000000
vn 0.000000 -1.000000 0.000000
vn 0.000000 -1.000000 0.000000
vn 0.000000 1.000000 0.000000
vn 0.000000 1.000000 0.000000
vn -1.000000 0.000000 0.000000
vn -1.000000 0.000000 0.000000
vn 1.000000 0.000000 0.000000
vn 1.000000 0.000000 0.000000
f 129/129/193 131/131/193 130/130/193
f 129/129/194 132/132/194 131/131/194
f 133/133/195 134/134/195 135/135/195
f 133/133/196 135/135/196 136/136/196
f 129/129/197 130/130/197 134/134/197
f 129/129/198 134/134/198 133/133/198
f 132/132/199 136/136/199 135/135/199
f 132/132/200 135/135/200 131/131/200
f 129/129/201 133/133/201 136/136/201
f 129/129/202 136/136/202 132/132/202
f 130/130/203 131/131/203 135/135/203
f 130/130/204 135/135/204 134/134/204

o Edge_Top
usemtl WhiteEdge
v -52.121250 142.767500 -19.626250
v 52.121250 142.767500 -19.626250
v 52.121250 146.367500 -19.626250
v -52.121250 146.367500 -19.626250
v -52.121250 142.767500 -19.506250
v 52.121250 142.767500 -19.506250
v 52.121250 146.367500 -19.506250
v -52.121250 146.367500 -19.506250
vt 0.000000 0.000000
vt 1.000000 0.000000
vt 1.000000 1.000000
vt 0.000000 1.000000
vt 0.000000 0.000000
vt 1.000000 0.000000
vt 1.000000 1.000000
vt 0.000000 1.000000
vn 0.000000 0.000000 -1.000000
vn 0.000000 0.000000 -1.000000
vn 0.000000 0.000000 1.000000
vn 0.000000 0.000000 1.000000
vn 0.000000 -1.000000 0.000000
vn 0.000000 -1.000000 0.000000
vn 0.000000 1.000000 0.000000
vn 0.000000 1.000000 0.000000
vn -1.000000 0.000000 0.000000
vn -1.000000 0.000000 0.000000
vn 1.000000 0.000000 0.000000
vn 1.000000 0.000000 0.000000
f 137/137/205 139/139/205 138/138/205
f 137/137/206 140/140/206 139/139/206
f 141/141/207 142/142/207 143/143/207
f 141/141/208 143/143/208 144/144/208
f 137/137/209 138/138/209 142/142/209
f 137/137/210 142/142/210 141/141/210
f 140/140/211 144/144/211 143/143/211
f 140/140/212 143/143/212 139/139/212
f 137/137/213 141/141/213 144/144/213
f 137/137/214 144/144/214 140/140/214
f 138/138/215 139/139/215 143/143/215
f 138/138/216 143/143/216 142/142/216

o Edge_Bottom
usemtl WhiteEdge
v -52.121250 0.000000 -19.626250
v 52.121250 0.000000 -19.626250
v 52.121250 3.600000 -19.626250
v -52.121250 3.600000 -19.626250
v -52.121250 0.000000 -19.506250
v 52.121250 0.000000 -19.506250
v 52.121250 3.600000 -19.506250
v -52.121250 3.600000 -19.506250
vt 0.000000 0.000000
vt 1.000000 0.000000
vt 1.000000 1.000000
vt 0.000000 1.000000
vt 0.000000 0.000000
vt 1.000000 0.000000
vt 1.000000 1.000000
vt 0.000000 1.000000
vn 0.000000 0.000000 -1.000000
vn 0.000000 0.000000 -1.000000
vn 0.000000 0.000000 1.000000
vn 0.000000 0.000000 1.000000
vn 0.000000 -1.000000 0.000000
vn 0.000000 -1.000000 0.000000
vn 0.000000 1.000000 0.000000
vn 0.000000 1.000000 0.000000
vn -1.000000 0.000000 0.000000
vn -1.000000 0.000000 0.000000
vn 1.000000 0.000000 0.000000
vn 1.000000 0.000000 0.000000
f 145/145/217 147/147/217 146/146/217
f 145/145/218 148/148/218 147/147/218
f 149/149/219 150/150/219 151/151/219
f 149/149/220 151/151/220 152/152/220
f 145/145/221 146/146/221 150/150/221
f 145/145/222 150/150/222 149/149/222
f 148/148/223 152/152/223 151/151/223
f 148/148/224 151/151/224 147/147/224
f 145/145/225 149/149/225 152/152/225
f 145/145/226 152/152/226 148/148/226
f 146/146/227 147/147/227 151/151/227
f 146/146/228 151/151/228 150/150/228

o Edge_InternalShelf_1
usemtl WhiteEdge
v -52.121250 37.116875 -19.626250
v 52.121250 37.116875 -19.626250
v 52.121250 38.816875 -19.626250
v -52.121250 38.816875 -19.626250
v -52.121250 37.116875 -19.506250
v 52.121250 37.116875 -19.506250
v 52.121250 38.816875 -19.506250
v -52.121250 38.816875 -19.506250
vt 0.000000 0.000000
vt 1.000000 0.000000
vt 1.000000 1.000000
vt 0.000000 1.000000
vt 0.000000 0.000000
vt 1.000000 0.000000
vt 1.000000 1.000000
vt 0.000000 1.000000
vn 0.000000 0.000000 -1.000000
vn 0.000000 0.000000 -1.000000
vn 0.000000 0.000000 1.000000
vn 0.000000 0.000000 1.000000
vn 0.000000 -1.000000 0.000000
vn 0.000000 -1.000000 0.000000
vn 0.000000 1.000000 0.000000
vn 0.000000 1.000000 0.000000
vn -1.000000 0.000000 0.000000
vn -1.000000 0.000000 0.000000
vn 1.000000 0.000000 0.000000
vn 1.000000 0.000000 0.000000
f 153/153/229 155/155/229 154/154/229
f 153/153/230 156/156/230 155/155/230
f 157/157/231 158/158/231 159/159/231
f 157/157/232 159/159/232 160/160/232
f 153/153/233 154/154/233 158/158/233
f 153/153/234 158/158/234 157/157/234
f 156/156/235 160/160/235 159/159/235
f 156/156/236 159/159/236 155/155/236
f 153/153/237 157/157/237 160/160/237
f 153/153/238 160/160/238 156/156/238
f 154/154/239 155/155/239 159/159/239
f 154/154/240 159/159/240 158/158/240

o Edge_InternalShelf_2
usemtl WhiteEdge
v -52.121250 72.333750 -19.626250
v 52.121250 72.333750 -19.626250
v 52.121250 74.033750 -19.626250
v -52.121250 74.033750 -19.626250
v -52.121250 72.333750 -19.506250
v 52.121250 72.333750 -19.506250
v 52.121250 74.033750 -19.506250
v -52.121250 74.033750 -19.506250
vt 0.000000 0.000000
vt 1.000000 0.000000
vt 1.000000 1.000000
vt 0.000000 1.000000
vt 0.000000 0.000000
vt 1.000000 0.000000
vt 1.000000 1.000000
vt 0.000000 1.000000
vn 0.000000 0.000000 -1.000000
vn 0.000000 0.000000 -1.000000
vn 0.000000 0.000000 1.000000
vn 0.000000 0.000000 1.000000
vn 0.000000 -1.000000 0.000000
vn 0.000000 -1.000000 0.000000
vn 0.000000 1.000000 0.000000
vn 0.000000 1.000000 0.000000
vn -1.000000 0.000000 0.000000
vn -1.000000 0.000000 0.000000
vn 1.000000 0.000000 0.000000
vn 1.000000 0.000000 0.000000
f 161/161/241 163/163/241 162/162/241
f 161/161/242 164/164/242 163/163/242
f 165/165/243 166/166/243 167/167/243
f 165/165/244 167/167/244 168/168/244
f 161/161/245 162/162/245 166/166/245
f 161/161/246 166/166/246 165/165/246
f 164/164/247 168/168/247 167/167/247
f 164/164/248 167/167/248 163/163/248
f 161/161/249 165/165/249 168/168/249
f 161/161/250 168/168/250 164/164/250
f 162/162/251 163/163/251 167/167/251
f 162/162/252 167/167/252 166/166/252

o Edge_InternalShelf_3
usemtl WhiteEdge
v -52.121250 107.550625 -19.626250
v 52.121250 107.550625 -19.626250
v 52.121250 109.250625 -19.626250
v -52.121250 109.250625 -19.626250
v -52.121250 107.550625 -19.506250
v 52.121250 107.550625 -19.506250
v 52.121250 109.250625 -19.506250
v -52.121250 109.250625 -19.506250
vt 0.000000 0.000000
vt 1.000000 0.000000
vt 1.000000 1.000000
vt 0.000000 1.000000
vt 0.000000 0.000000
vt 1.000000 0.000000
vt 1.000000 1.000000
vt 0.000000 1.000000
vn 0.000000 0.000000 -1.000000
vn 0.000000 0.000000 -1.000000
vn 0.000000 0.000000 1.000000
vn 0.000000 0.000000 1.000000
vn 0.000000 -1.000000 0.000000
vn 0.000000 -1.000000 0.000000
vn 0.000000 1.000000 0.000000
vn 0.000000 1.000000 0.000000
vn -1.000000 0.000000 0.000000
vn -1.000000 0.000000 0.000000
vn 1.000000 0.000000 0.000000
vn 1.000000 0.000000 0.000000
f 169/169/253 171/171/253 170/170/253
f 169/169/254 172/172/254 171/171/254
f 173/173/255 174/174/255 175/175/255
f 173/173/256 175/175/256 176/176/256
f 169/169/257 170/170/257 174/174/257
f 169/169/258 174/174/258 173/173/258
f 172/172/259 176/176/259 175/175/259
f 172/172/260 175/175/260 171/171/260
f 169/169/261 173/173/261 176/176/261
f 169/169/262 176/176/262 172/172/262
f 170/170/263 171/171/263 175/175/263
f 170/170/264 175/175/264 174/174/264

o Edge_Divider_C1_R1
usemtl WhiteEdge
v -18.507083 3.600000 -19.626250
v -16.807083 3.600000 -19.626250
v -16.807083 37.116875 -19.626250
v -18.507083 37.116875 -19.626250
v -18.507083 3.600000 -19.506250
v -16.807083 3.600000 -19.506250
v -16.807083 37.116875 -19.506250
v -18.507083 37.116875 -19.506250
vt 0.000000 0.000000
vt 1.000000 0.000000
vt 1.000000 1.000000
vt 0.000000 1.000000
vt 0.000000 0.000000
vt 1.000000 0.000000
vt 1.000000 1.000000
vt 0.000000 1.000000
vn 0.000000 0.000000 -1.000000
vn 0.000000 0.000000 -1.000000
vn 0.000000 0.000000 1.000000
vn 0.000000 0.000000 1.000000
vn 0.000000 -1.000000 0.000000
vn 0.000000 -1.000000 0.000000
vn 0.000000 1.000000 0.000000
vn 0.000000 1.000000 0.000000
vn -1.000000 0.000000 0.000000
vn -1.000000 0.000000 0.000000
vn 1.000000 0.000000 0.000000
vn 1.000000 0.000000 0.000000
f 177/177/265 179/179/265 178/178/265
f 177/177/266 180/180/266 179/179/266
f 181/181/267 182/182/267 183/183/267
f 181/181/268 183/183/268 184/184/268
f 177/177/269 178/178/269 182/182/269
f 177/177/270 182/182/270 181/181/270
f 180/180/271 184/184/271 183/183/271
f 180/180/272 183/183/272 179/179/272
f 177/177/273 181/181/273 184/184/273
f 177/177/274 184/184/274 180/180/274
f 178/178/275 179/179/275 183/183/275
f 178/178/276 183/183/276 182/182/276

o Edge_Divider_C1_R2
usemtl WhiteEdge
v -18.507083 38.816875 -19.626250
v -16.807083 38.816875 -19.626250
v -16.807083 72.333750 -19.626250
v -18.507083 72.333750 -19.626250
v -18.507083 38.816875 -19.506250
v -16.807083 38.816875 -19.506250
v -16.807083 72.333750 -19.506250
v -18.507083 72.333750 -19.506250
vt 0.000000 0.000000
vt 1.000000 0.000000
vt 1.000000 1.000000
vt 0.000000 1.000000
vt 0.000000 0.000000
vt 1.000000 0.000000
vt 1.000000 1.000000
vt 0.000000 1.000000
vn 0.000000 0.000000 -1.000000
vn 0.000000 0.000000 -1.000000
vn 0.000000 0.000000 1.000000
vn 0.000000 0.000000 1.000000
vn 0.000000 -1.000000 0.000000
vn 0.000000 -1.000000 0.000000
vn 0.000000 1.000000 0.000000
vn 0.000000 1.000000 0.000000
vn -1.000000 0.000000 0.000000
vn -1.000000 0.000000 0.000000
vn 1.000000 0.000000 0.000000
vn 1.000000 0.000000 0.000000
f 185/185/277 187/187/277 186/186/277
f 185/185/278 188/188/278 187/187/278
f 189/189/279 190/190/279 191/191/279
f 189/189/280 191/191/280 192/192/280
f 185/185/281 186/186/281 190/190/281
f 185/185/282 190/190/282 189/189/282
f 188/188/283 192/192/283 191/191/283
f 188/188/284 191/191/284 187/187/284
f 185/185/285 189/189/285 192/192/285
f 185/185/286 192/192/286 188/188/286
f 186/186/287 187/187/287 191/191/287
f 186/186/288 191/191/288 190/190/288

o Edge_Divider_C1_R3
usemtl WhiteEdge
v -18.507083 74.033750 -19.626250
v -16.807083 74.033750 -19.626250
v -16.807083 107.550625 -19.626250
v -18.507083 107.550625 -19.626250
v -18.507083 74.033750 -19.506250
v -16.807083 74.033750 -19.506250
v -16.807083 107.550625 -19.506250
v -18.507083 107.550625 -19.506250
vt 0.000000 0.000000
vt 1.000000 0.000000
vt 1.000000 1.000000
vt 0.000000 1.000000
vt 0.000000 0.000000
vt 1.000000 0.000000
vt 1.000000 1.000000
vt 0.000000 1.000000
vn 0.000000 0.000000 -1.000000
vn 0.000000 0.000000 -1.000000
vn 0.000000 0.000000 1.000000
vn 0.000000 0.000000 1.000000
vn 0.000000 -1.000000 0.000000
vn 0.000000 -1.000000 0.000000
vn 0.000000 1.000000 0.000000
vn 0.000000 1.000000 0.000000
vn -1.000000 0.000000 0.000000
vn -1.000000 0.000000 0.000000
vn 1.000000 0.000000 0.000000
vn 1.000000 0.000000 0.000000
f 193/193/289 195/195/289 194/194/289
f 193/193/290 196/196/290 195/195/290
f 197/197/291 198/198/291 199/199/291
f 197/197/292 199/199/292 200/200/292
f 193/193/293 194/194/293 198/198/293
f 193/193/294 198/198/294 197/197/294
f 196/196/295 200/200/295 199/199/295
f 196/196/296 199/199/296 195/195/296
f 193/193/297 197/197/297 200/200/297
f 193/193/298 200/200/298 196/196/298
f 194/194/299 195/195/299 199/199/299
f 194/194/300 199/199/300 198/198/300

o Edge_Divider_C1_R4
usemtl WhiteEdge
v -18.507083 109.250625 -19.626250
v -16.807083 109.250625 -19.626250
v -16.807083 142.767500 -19.626250
v -18.507083 142.767500 -19.626250
v -18.507083 109.250625 -19.506250
v -16.807083 109.250625 -19.506250
v -16.807083 142.767500 -19.506250
v -18.507083 142.767500 -19.506250
vt 0.000000 0.000000
vt 1.000000 0.000000
vt 1.000000 1.000000
vt 0.000000 1.000000
vt 0.000000 0.000000
vt 1.000000 0.000000
vt 1.000000 1.000000
vt 0.000000 1.000000
vn 0.000000 0.000000 -1.000000
vn 0.000000 0.000000 -1.000000
vn 0.000000 0.000000 1.000000
vn 0.000000 0.000000 1.000000
vn 0.000000 -1.000000 0.000000
vn 0.000000 -1.000000 0.000000
vn 0.000000 1.000000 0.000000
vn 0.000000 1.000000 0.000000
vn -1.000000 0.000000 0.000000
vn -1.000000 0.000000 0.000000
vn 1.000000 0.000000 0.000000
vn 1.000000 0.000000 0.000000
f 201/201/301 203/203/301 202/202/301
f 201/201/302 204/204/302 203/203/302
f 205/205/303 206/206/303 207/207/303
f 205/205/304 207/207/304 208/208/304
f 201/201/305 202/202/305 206/206/305
f 201/201/306 206/206/306 205/205/306
f 204/204/307 208/208/307 207/207/307
f 204/204/308 207/207/308 203/203/308
f 201/201/309 205/205/309 208/208/309
f 201/201/310 208/208/310 204/204/310
f 202/202/311 203/203/311 207/207/311
f 202/202/312 207/207/312 206/206/312

o Edge_Divider_C2_R1
usemtl WhiteEdge
v 16.807083 3.600000 -19.626250
v 18.507083 3.600000 -19.626250
v 18.507083 37.116875 -19.626250
v 16.807083 37.116875 -19.626250
v 16.807083 3.600000 -19.506250
v 18.507083 3.600000 -19.506250
v 18.507083 37.116875 -19.506250
v 16.807083 37.116875 -19.506250
vt 0.000000 0.000000
vt 1.000000 0.000000
vt 1.000000 1.000000
vt 0.000000 1.000000
vt 0.000000 0.000000
vt 1.000000 0.000000
vt 1.000000 1.000000
vt 0.000000 1.000000
vn 0.000000 0.000000 -1.000000
vn 0.000000 0.000000 -1.000000
vn 0.000000 0.000000 1.000000
vn 0.000000 0.000000 1.000000
vn 0.000000 -1.000000 0.000000
vn 0.000000 -1.000000 0.000000
vn 0.000000 1.000000 0.000000
vn 0.000000 1.000000 0.000000
vn -1.000000 0.000000 0.000000
vn -1.000000 0.000000 0.000000
vn 1.000000 0.000000 0.000000
vn 1.000000 0.000000 0.000000
f 209/209/313 211/211/313 210/210/313
f 209/209/314 212/212/314 211/211/314
f 213/213/315 214/214/315 215/215/315
f 213/213/316 215/215/316 216/216/316
f 209/209/317 210/210/317 214/214/317
f 209/209/318 214/214/318 213/213/318
f 212/212/319 216/216/319 215/215/319
f 212/212/320 215/215/320 211/211/320
f 209/209/321 213/213/321 216/216/321
f 209/209/322 216/216/322 212/212/322
f 210/210/323 211/211/323 215/215/323
f 210/210/324 215/215/324 214/214/324

o Edge_Divider_C2_R2
usemtl WhiteEdge
v 16.807083 38.816875 -19.626250
v 18.507083 38.816875 -19.626250
v 18.507083 72.333750 -19.626250
v 16.807083 72.333750 -19.626250
v 16.807083 38.816875 -19.506250
v 18.507083 38.816875 -19.506250
v 18.507083 72.333750 -19.506250
v 16.807083 72.333750 -19.506250
vt 0.000000 0.000000
vt 1.000000 0.000000
vt 1.000000 1.000000
vt 0.000000 1.000000
vt 0.000000 0.000000
vt 1.000000 0.000000
vt 1.000000 1.000000
vt 0.000000 1.000000
vn 0.000000 0.000000 -1.000000
vn 0.000000 0.000000 -1.000000
vn 0.000000 0.000000 1.000000
vn 0.000000 0.000000 1.000000
vn 0.000000 -1.000000 0.000000
vn 0.000000 -1.000000 0.000000
vn 0.000000 1.000000 0.000000
vn 0.000000 1.000000 0.000000
vn -1.000000 0.000000 0.000000
vn -1.000000 0.000000 0.000000
vn 1.000000 0.000000 0.000000
vn 1.000000 0.000000 0.000000
f 217/217/325 219/219/325 218/218/325
f 217/217/326 220/220/326 219/219/326
f 221/221/327 222/222/327 223/223/327
f 221/221/328 223/223/328 224/224/328
f 217/217/329 218/218/329 222/222/329
f 217/217/330 222/222/330 221/221/330
f 220/220/331 224/224/331 223/223/331
f 220/220/332 223/223/332 219/219/332
f 217/217/333 221/221/333 224/224/333
f 217/217/334 224/224/334 220/220/334
f 218/218/335 219/219/335 223/223/335
f 218/218/336 223/223/336 222/222/336

o Edge_Divider_C2_R3
usemtl WhiteEdge
v 16.807083 74.033750 -19.626250
v 18.507083 74.033750 -19.626250
v 18.507083 107.550625 -19.626250
v 16.807083 107.550625 -19.626250
v 16.807083 74.033750 -19.506250
v 18.507083 74.033750 -19.506250
v 18.507083 107.550625 -19.506250
v 16.807083 107.550625 -19.506250
vt 0.000000 0.000000
vt 1.000000 0.000000
vt 1.000000 1.000000
vt 0.000000 1.000000
vt 0.000000 0.000000
vt 1.000000 0.000000
vt 1.000000 1.000000
vt 0.000000 1.000000
vn 0.000000 0.000000 -1.000000
vn 0.000000 0.000000 -1.000000
vn 0.000000 0.000000 1.000000
vn 0.000000 0.000000 1.000000
vn 0.000000 -1.000000 0.000000
vn 0.000000 -1.000000 0.000000
vn 0.000000 1.000000 0.000000
vn 0.000000 1.000000 0.000000
vn -1.000000 0.000000 0.000000
vn -1.000000 0.000000 0.000000
vn 1.000000 0.000000 0.000000
vn 1.000000 0.000000 0.000000
f 225/225/337 227/227/337 226/226/337
f 225/225/338 228/228/338 227/227/338
f 229/229/339 230/230/339 231/231/339
f 229/229/340 231/231/340 232/232/340
f 225/225/341 226/226/341 230/230/341
f 225/225/342 230/230/342 229/229/342
f 228/228/343 232/232/343 231/231/343
f 228/228/344 231/231/344 227/227/344
f 225/225/345 229/229/345 232/232/345
f 225/225/346 232/232/346 228/228/346
f 226/226/347 227/227/347 231/231/347
f 226/226/348 231/231/348 230/230/348

o Edge_Divider_C2_R4
usemtl WhiteEdge
v 16.807083 109.250625 -19.626250
v 18.507083 109.250625 -19.626250
v 18.507083 142.767500 -19.626250
v 16.807083 142.767500 -19.626250
v 16.807083 109.250625 -19.506250
v 18.507083 109.250625 -19.506250
v 18.507083 142.767500 -19.506250
v 16.807083 142.767500 -19.506250
vt 0.000000 0.000000
vt 1.000000 0.000000
vt 1.000000 1.000000
vt 0.000000 1.000000
vt 0.000000 0.000000
vt 1.000000 0.000000
vt 1.000000 1.000000
vt 0.000000 1.000000
vn 0.000000 0.000000 -1.000000
vn 0.000000 0.000000 -1.000000
vn 0.000000 0.000000 1.000000
vn 0.000000 0.000000 1.000000
vn 0.000000 -1.000000 0.000000
vn 0.000000 -1.000000 0.000000
vn 0.000000 1.000000 0.000000
vn 0.000000 1.000000 0.000000
vn -1.000000 0.000000 0.000000
vn -1.000000 0.000000 0.000000
vn 1.000000 0.000000 0.000000
vn 1.000000 0.000000 0.000000
f 233/233/349 235/235/349 234/234/349
f 233/233/350 236/236/350 235/235/350
f 237/237/351 238/238/351 239/239/351
f 237/237/352 239/239/352 240/240/352
f 233/233/353 234/234/353 238/238/353
f 233/233/354 238/238/354 237/237/354
f 236/236/355 240/240/355 239/239/355
f 236/236/356 239/239/356 235/235/356
f 233/233/357 237/237/357 240/240/357
f 233/233/358 240/240/358 236/236/358
f 234/234/359 235/235/359 239/239/359
f 234/234/360 239/239/360 238/238/360

o Left_SideCap_1
usemtl WhiteCap
v -55.731250 2.232000 -10.544175
v -55.731250 2.232000 -10.094175
v -55.841250 2.232000 -10.094175
v -55.841250 2.232000 -10.544175
v -55.731250 2.385909 -10.121313
v -55.841250 2.385909 -10.121313
v -55.731250 2.521254 -10.199455
v -55.841250 2.521254 -10.199455
v -55.731250 2.621711 -10.319175
v -55.841250 2.621711 -10.319175
v -55.731250 2.675163 -10.466033
v -55.841250 2.675163 -10.466033
v -55.731250 2.675163 -10.622317
v -55.841250 2.675163 -10.622317
v -55.731250 2.621711 -10.769175
v -55.841250 2.621711 -10.769175
v -55.731250 2.521254 -10.888895
v -55.841250 2.521254 -10.888895
v -55.731250 2.385909 -10.967037
v -55.841250 2.385909 -10.967037
v -55.731250 2.232000 -10.994175
v -55.841250 2.232000 -10.994175
v -55.731250 2.078091 -10.967037
v -55.841250 2.078091 -10.967037
v -55.731250 1.942746 -10.888895
v -55.841250 1.942746 -10.888895
v -55.731250 1.842289 -10.769175
v -55.841250 1.842289 -10.769175
v -55.731250 1.788837 -10.622317
v -55.841250 1.788837 -10.622317
v -55.731250 1.788837 -10.466033
v -55.841250 1.788837 -10.466033
v -55.731250 1.842289 -10.319175
v -55.841250 1.842289 -10.319175
v -55.731250 1.942746 -10.199455
v -55.841250 1.942746 -10.199455
v -55.731250 2.078091 -10.121313
v -55.841250 2.078091 -10.121313
vt 1.000000 0.500000
vt 1.000000 0.500000
vt 0.000000 0.500000
vt 0.000000 0.500000
vt 1.000000 0.673648
vt 0.000000 0.673648
vt 1.000000 0.826352
vt 0.000000 0.826352
vt 1.000000 0.939693
vt 0.000000 0.939693
vt 1.000000 1.000000
vt 0.000000 1.000000
vt 1.000000 1.000000
vt 0.000000 1.000000
vt 1.000000 0.939693
vt 0.000000 0.939693
vt 1.000000 0.826352
vt 0.000000 0.826352
vt 1.000000 0.673648
vt 0.000000 0.673648
vt 1.000000 0.500000
vt 0.000000 0.500000
vt 1.000000 0.326352
vt 0.000000 0.326352
vt 1.000000 0.173648
vt 0.000000 0.173648
vt 1.000000 0.060307
vt 0.000000 0.060307
vt 1.000000 0.000000
vt 0.000000 0.000000
vt 1.000000 0.000000
vt 0.000000 0.000000
vt 1.000000 0.060307
vt 0.000000 0.060307
vt 1.000000 0.173648
vt 0.000000 0.173648
vt 1.000000 0.326352
vt 0.000000 0.326352
vn 1.000000 0.000000 0.000000
vn 0.000000 0.173648 0.984808
vn 0.000000 0.173648 0.984808
vn -1.000000 0.000000 0.000000
vn 1.000000 0.000000 0.000000
vn 0.000000 0.500000 0.866025
vn 0.000000 0.500000 0.866025
vn -1.000000 0.000000 -0.000000
vn 1.000000 0.000000 0.000000
vn 0.000000 0.766044 0.642788
vn 0.000000 0.766044 0.642788
vn -1.000000 0.000000 -0.000000
vn 1.000000 0.000000 0.000000
vn 0.000000 0.939693 0.342020
vn 0.000000 0.939693 0.342020
vn -1.000000 0.000000 -0.000000
vn 1.000000 0.000000 0.000000
vn 0.000000 1.000000 0.000000
vn 0.000000 1.000000 0.000000
vn -1.000000 0.000000 -0.000000
vn 1.000000 0.000000 0.000000
vn 0.000000 0.939693 -0.342020
vn 0.000000 0.939693 -0.342020
vn -1.000000 -0.000000 0.000000
vn 1.000000 0.000000 0.000000
vn 0.000000 0.766044 -0.642788
vn 0.000000 0.766044 -0.642788
vn -1.000000 -0.000000 0.000000
vn 1.000000 0.000000 0.000000
vn 0.000000 0.500000 -0.866025
vn 0.000000 0.500000 -0.866025
vn -1.000000 -0.000000 0.000000
vn 1.000000 0.000000 0.000000
vn 0.000000 0.173648 -0.984808
vn 0.000000 0.173648 -0.984808
vn -1.000000 -0.000000 0.000000
vn 1.000000 0.000000 -0.000000
vn -0.000000 -0.173648 -0.984808
vn 0.000000 -0.173648 -0.984808
vn -1.000000 0.000000 0.000000
vn 1.000000 0.000000 -0.000000
vn -0.000000 -0.500000 -0.866025
vn 0.000000 -0.500000 -0.866025
vn -1.000000 0.000000 0.000000
vn 1.000000 0.000000 -0.000000
vn -0.000000 -0.766044 -0.642788
vn 0.000000 -0.766044 -0.642788
vn -1.000000 0.000000 0.000000
vn 1.000000 0.000000 -0.000000
vn -0.000000 -0.939693 -0.342020
vn 0.000000 -0.939693 -0.342020
vn -1.000000 0.000000 0.000000
vn 1.000000 0.000000 0.000000
vn 0.000000 -1.000000 0.000000
vn 0.000000 -1.000000 0.000000
vn -1.000000 0.000000 0.000000
vn 1.000000 -0.000000 0.000000
vn 0.000000 -0.939693 0.342020
vn 0.000000 -0.939693 0.342020
vn -1.000000 0.000000 0.000000
vn 1.000000 -0.000000 0.000000
vn 0.000000 -0.766044 0.642788
vn 0.000000 -0.766044 0.642788
vn -1.000000 0.000000 0.000000
vn 1.000000 -0.000000 0.000000
vn 0.000000 -0.500000 0.866025
vn 0.000000 -0.500000 0.866025
vn -1.000000 0.000000 0.000000
vn 1.000000 -0.000000 0.000000
vn 0.000000 -0.173648 0.984808
vn 0.000000 -0.173648 0.984808
vn -1.000000 0.000000 0.000000
f 242/242/361 241/241/361 245/245/361
f 242/242/362 245/245/362 243/243/362
f 243/243/363 245/245/363 246/246/363
f 243/243/364 246/246/364 244/244/364
f 245/245/365 241/241/365 247/247/365
f 245/245/366 247/247/366 246/246/366
f 246/246/367 247/247/367 248/248/367
f 246/246/368 248/248/368 244/244/368
f 247/247/369 241/241/369 249/249/369
f 247/247/370 249/249/370 248/248/370
f 248/248/371 249/249/371 250/250/371
f 248/248/372 250/250/372 244/244/372
f 249/249/373 241/241/373 251/251/373
f 249/249/374 251/251/374 250/250/374
f 250/250/375 251/251/375 252/252/375
f 250/250/376 252/252/376 244/244/376
f 251/251/377 241/241/377 253/253/377
f 251/251/378 253/253/378 252/252/378
f 252/252/379 253/253/379 254/254/379
f 252/252/380 254/254/380 244/244/380
f 253/253/381 241/241/381 255/255/381
f 253/253/382 255/255/382 254/254/382
f 254/254/383 255/255/383 256/256/383
f 254/254/384 256/256/384 244/244/384
f 255/255/385 241/241/385 257/257/385
f 255/255/386 257/257/386 256/256/386
f 256/256/387 257/257/387 258/258/387
f 256/256/388 258/258/388 244/244/388
f 257/257/389 241/241/389 259/259/389
f 257/257/390 259/259/390 258/258/390
f 258/258/391 259/259/391 260/260/391
f 258/258/392 260/260/392 244/244/392
f 259/259/393 241/241/393 261/261/393
f 259/259/394 261/261/394 260/260/394
f 260/260/395 261/261/395 262/262/395
f 260/260/396 262/262/396 244/244/396
f 261/261/397 241/241/397 263/263/397
f 261/261/398 263/263/398 262/262/398
f 262/262/399 263/263/399 264/264/399
f 262/262/400 264/264/400 244/244/400
f 263/263/401 241/241/401 265/265/401
f 263/263/402 265/265/402 264/264/402
f 264/264/403 265/265/403 266/266/403
f 264/264/404 266/266/404 244/244/404
f 265/265/405 241/241/405 267/267/405
f 265/265/406 267/267/406 266/266/406
f 266/266/407 267/267/407 268/268/407
f 266/266/408 268/268/408 244/244/408
f 267/267/409 241/241/409 269/269/409
f 267/267/410 269/269/410 268/268/410
f 268/268/411 269/269/411 270/270/411
f 268/268/412 270/270/412 244/244/412
f 269/269/413 241/241/413 271/271/413
f 269/269/414 271/271/414 270/270/414
f 270/270/415 271/271/415 272/272/415
f 270/270/416 272/272/416 244/244/416
f 271/271/417 241/241/417 273/273/417
f 271/271/418 273/273/418 272/272/418
f 272/272/419 273/273/419 274/274/419
f 272/272/420 274/274/420 244/244/420
f 273/273/421 241/241/421 275/275/421
f 273/273/422 275/275/422 274/274/422
f 274/274/423 275/275/423 276/276/423
f 274/274/424 276/276/424 244/244/424
f 275/275/425 241/241/425 277/277/425
f 275/275/426 277/277/426 276/276/426
f 276/276/427 277/277/427 278/278/427
f 276/276/428 278/278/428 244/244/428
f 277/277/429 241/241/429 242/242/429
f 277/277/430 242/242/430 278/278/430
f 278/278/431 242/242/431 243/243/431
f 278/278/432 243/243/432 244/244/432

o Left_SideCap_2
usemtl WhiteCap
v -55.731250 144.135500 -10.544175
v -55.731250 144.135500 -10.094175
v -55.841250 144.135500 -10.094175
v -55.841250 144.135500 -10.544175
v -55.731250 144.289409 -10.121313
v -55.841250 144.289409 -10.121313
v -55.731250 144.424754 -10.199455
v -55.841250 144.424754 -10.199455
v -55.731250 144.525211 -10.319175
v -55.841250 144.525211 -10.319175
v -55.731250 144.578663 -10.466033
v -55.841250 144.578663 -10.466033
v -55.731250 144.578663 -10.622317
v -55.841250 144.578663 -10.622317
v -55.731250 144.525211 -10.769175
v -55.841250 144.525211 -10.769175
v -55.731250 144.424754 -10.888895
v -55.841250 144.424754 -10.888895
v -55.731250 144.289409 -10.967037
v -55.841250 144.289409 -10.967037
v -55.731250 144.135500 -10.994175
v -55.841250 144.135500 -10.994175
v -55.731250 143.981591 -10.967037
v -55.841250 143.981591 -10.967037
v -55.731250 143.846246 -10.888895
v -55.841250 143.846246 -10.888895
v -55.731250 143.745789 -10.769175
v -55.841250 143.745789 -10.769175
v -55.731250 143.692337 -10.622317
v -55.841250 143.692337 -10.622317
v -55.731250 143.692337 -10.466033
v -55.841250 143.692337 -10.466033
v -55.731250 143.745789 -10.319175
v -55.841250 143.745789 -10.319175
v -55.731250 143.846246 -10.199455
v -55.841250 143.846246 -10.199455
v -55.731250 143.981591 -10.121313
v -55.841250 143.981591 -10.121313
vt 1.000000 0.500000
vt 1.000000 0.500000
vt 0.000000 0.500000
vt 0.000000 0.500000
vt 1.000000 0.673648
vt 0.000000 0.673648
vt 1.000000 0.826352
vt 0.000000 0.826352
vt 1.000000 0.939693
vt 0.000000 0.939693
vt 1.000000 1.000000
vt 0.000000 1.000000
vt 1.000000 1.000000
vt 0.000000 1.000000
vt 1.000000 0.939693
vt 0.000000 0.939693
vt 1.000000 0.826352
vt 0.000000 0.826352
vt 1.000000 0.673648
vt 0.000000 0.673648
vt 1.000000 0.500000
vt 0.000000 0.500000
vt 1.000000 0.326352
vt 0.000000 0.326352
vt 1.000000 0.173648
vt 0.000000 0.173648
vt 1.000000 0.060307
vt 0.000000 0.060307
vt 1.000000 0.000000
vt 0.000000 0.000000
vt 1.000000 0.000000
vt 0.000000 0.000000
vt 1.000000 0.060307
vt 0.000000 0.060307
vt 1.000000 0.173648
vt 0.000000 0.173648
vt 1.000000 0.326352
vt 0.000000 0.326352
vn 1.000000 0.000000 0.000000
vn 0.000000 0.173648 0.984808
vn 0.000000 0.173648 0.984808
vn -1.000000 0.000000 0.000000
vn 1.000000 0.000000 0.000000
vn 0.000000 0.500000 0.866025
vn 0.000000 0.500000 0.866025
vn -1.000000 0.000000 -0.000000
vn 1.000000 0.000000 0.000000
vn 0.000000 0.766044 0.642788
vn 0.000000 0.766044 0.642788
vn -1.000000 0.000000 -0.000000
vn 1.000000 0.000000 0.000000
vn 0.000000 0.939693 0.342020
vn 0.000000 0.939693 0.342020
vn -1.000000 0.000000 -0.000000
vn 1.000000 0.000000 0.000000
vn 0.000000 1.000000 0.000000
vn 0.000000 1.000000 0.000000
vn -1.000000 0.000000 -0.000000
vn 1.000000 0.000000 0.000000
vn 0.000000 0.939693 -0.342020
vn 0.000000 0.939693 -0.342020
vn -1.000000 -0.000000 0.000000
vn 1.000000 0.000000 0.000000
vn 0.000000 0.766044 -0.642788
vn 0.000000 0.766044 -0.642788
vn -1.000000 -0.000000 0.000000
vn 1.000000 0.000000 0.000000
vn 0.000000 0.500000 -0.866025
vn 0.000000 0.500000 -0.866025
vn -1.000000 -0.000000 0.000000
vn 1.000000 0.000000 0.000000
vn 0.000000 0.173648 -0.984808
vn 0.000000 0.173648 -0.984808
vn -1.000000 -0.000000 0.000000
vn 1.000000 0.000000 -0.000000
vn -0.000000 -0.173648 -0.984808
vn 0.000000 -0.173648 -0.984808
vn -1.000000 0.000000 0.000000
vn 1.000000 0.000000 -0.000000
vn -0.000000 -0.500000 -0.866025
vn 0.000000 -0.500000 -0.866025
vn -1.000000 0.000000 0.000000
vn 1.000000 0.000000 -0.000000
vn -0.000000 -0.766044 -0.642788
vn 0.000000 -0.766044 -0.642788
vn -1.000000 0.000000 0.000000
vn 1.000000 0.000000 -0.000000
vn -0.000000 -0.939693 -0.342020
vn 0.000000 -0.939693 -0.342020
vn -1.000000 0.000000 0.000000
vn 1.000000 0.000000 0.000000
vn 0.000000 -1.000000 0.000000
vn 0.000000 -1.000000 0.000000
vn -1.000000 0.000000 0.000000
vn 1.000000 -0.000000 0.000000
vn 0.000000 -0.939693 0.342020
vn 0.000000 -0.939693 0.342020
vn -1.000000 0.000000 0.000000
vn 1.000000 -0.000000 0.000000
vn 0.000000 -0.766044 0.642788
vn 0.000000 -0.766044 0.642788
vn -1.000000 0.000000 0.000000
vn 1.000000 -0.000000 0.000000
vn 0.000000 -0.500000 0.866025
vn 0.000000 -0.500000 0.866025
vn -1.000000 0.000000 0.000000
vn 1.000000 -0.000000 0.000000
vn 0.000000 -0.173648 0.984808
vn 0.000000 -0.173648 0.984808
vn -1.000000 0.000000 0.000000
f 280/280/433 279/279/433 283/283/433
f 280/280/434 283/283/434 281/281/434
f 281/281/435 283/283/435 284/284/435
f 281/281/436 284/284/436 282/282/436
f 283/283/437 279/279/437 285/285/437
f 283/283/438 285/285/438 284/284/438
f 284/284/439 285/285/439 286/286/439
f 284/284/440 286/286/440 282/282/440
f 285/285/441 279/279/441 287/287/441
f 285/285/442 287/287/442 286/286/442
f 286/286/443 287/287/443 288/288/443
f 286/286/444 288/288/444 282/282/444
f 287/287/445 279/279/445 289/289/445
f 287/287/446 289/289/446 288/288/446
f 288/288/447 289/289/447 290/290/447
f 288/288/448 290/290/448 282/282/448
f 289/289/449 279/279/449 291/291/449
f 289/289/450 291/291/450 290/290/450
f 290/290/451 291/291/451 292/292/451
f 290/290/452 292/292/452 282/282/452
f 291/291/453 279/279/453 293/293/453
f 291/291/454 293/293/454 292/292/454
f 292/292/455 293/293/455 294/294/455
f 292/292/456 294/294/456 282/282/456
f 293/293/457 279/279/457 295/295/457
f 293/293/458 295/295/458 294/294/458
f 294/294/459 295/295/459 296/296/459
f 294/294/460 296/296/460 282/282/460
f 295/295/461 279/279/461 297/297/461
f 295/295/462 297/297/462 296/296/462
f 296/296/463 297/297/463 298/298/463
f 296/296/464 298/298/464 282/282/464
f 297/297/465 279/279/465 299/299/465
f 297/297/466 299/299/466 298/298/466
f 298/298/467 299/299/467 300/300/467
f 298/298/468 300/300/468 282/282/468
f 299/299/469 279/279/469 301/301/469
f 299/299/470 301/301/470 300/300/470
f 300/300/471 301/301/471 302/302/471
f 300/300/472 302/302/472 282/282/472
f 301/301/473 279/279/473 303/303/473
f 301/301/474 303/303/474 302/302/474
f 302/302/475 303/303/475 304/304/475
f 302/302/476 304/304/476 282/282/476
f 303/303/477 279/279/477 305/305/477
f 303/303/478 305/305/478 304/304/478
f 304/304/479 305/305/479 306/306/479
f 304/304/480 306/306/480 282/282/480
f 305/305/481 279/279/481 307/307/481
f 305/305/482 307/307/482 306/306/482
f 306/306/483 307/307/483 308/308/483
f 306/306/484 308/308/484 282/282/484
f 307/307/485 279/279/485 309/309/485
f 307/307/486 309/309/486 308/308/486
f 308/308/487 309/309/487 310/310/487
f 308/308/488 310/310/488 282/282/488
f 309/309/489 279/279/489 311/311/489
f 309/309/490 311/311/490 310/310/490
f 310/310/491 311/311/491 312/312/491
f 310/310/492 312/312/492 282/282/492
f 311/311/493 279/279/493 313/313/493
f 311/311/494 313/313/494 312/312/494
f 312/312/495 313/313/495 314/314/495
f 312/312/496 314/314/496 282/282/496
f 313/313/497 279/279/497 315/315/497
f 313/313/498 315/315/498 314/314/498
f 314/314/499 315/315/499 316/316/499
f 314/314/500 316/316/500 282/282/500
f 315/315/501 279/279/501 280/280/501
f 315/315/502 280/280/502 316/316/502
f 316/316/503 280/280/503 281/281/503
f 316/316/504 281/281/504 282/282/504

o Right_SideCap_1
usemtl WhiteCap
v 55.731250 2.232000 -10.544175
v 55.731250 2.232000 -10.994175
v 55.841250 2.232000 -10.994175
v 55.841250 2.232000 -10.544175
v 55.731250 2.385909 -10.967037
v 55.841250 2.385909 -10.967037
v 55.731250 2.521254 -10.888895
v 55.841250 2.521254 -10.888895
v 55.731250 2.621711 -10.769175
v 55.841250 2.621711 -10.769175
v 55.731250 2.675163 -10.622317
v 55.841250 2.675163 -10.622317
v 55.731250 2.675163 -10.466033
v 55.841250 2.675163 -10.466033
v 55.731250 2.621711 -10.319175
v 55.841250 2.621711 -10.319175
v 55.731250 2.521254 -10.199455
v 55.841250 2.521254 -10.199455
v 55.731250 2.385909 -10.121313
v 55.841250 2.385909 -10.121313
v 55.731250 2.232000 -10.094175
v 55.841250 2.232000 -10.094175
v 55.731250 2.078091 -10.121313
v 55.841250 2.078091 -10.121313
v 55.731250 1.942746 -10.199455
v 55.841250 1.942746 -10.199455
v 55.731250 1.842289 -10.319175
v 55.841250 1.842289 -10.319175
v 55.731250 1.788837 -10.466033
v 55.841250 1.788837 -10.466033
v 55.731250 1.788837 -10.622317
v 55.841250 1.788837 -10.622317
v 55.731250 1.842289 -10.769175
v 55.841250 1.842289 -10.769175
v 55.731250 1.942746 -10.888895
v 55.841250 1.942746 -10.888895
v 55.731250 2.078091 -10.967037
v 55.841250 2.078091 -10.967037
vt 0.000000 0.500000
vt 0.000000 0.500000
vt 1.000000 0.500000
vt 1.000000 0.500000
vt 0.000000 0.673648
vt 1.000000 0.673648
vt 0.000000 0.826352
vt 1.000000 0.826352
vt 0.000000 0.939693
vt 1.000000 0.939693
vt 0.000000 1.000000
vt 1.000000 1.000000
vt 0.000000 1.000000
vt 1.000000 1.000000
vt 0.000000 0.939693
vt 1.000000 0.939693
vt 0.000000 0.826352
vt 1.000000 0.826352
vt 0.000000 0.673648
vt 1.000000 0.673648
vt 0.000000 0.500000
vt 1.000000 0.500000
vt 0.000000 0.326352
vt 1.000000 0.326352
vt 0.000000 0.173648
vt 1.000000 0.173648
vt 0.000000 0.060307
vt 1.000000 0.060307
vt 0.000000 0.000000
vt 1.000000 0.000000
vt 0.000000 0.000000
vt 1.000000 0.000000
vt 0.000000 0.060307
vt 1.000000 0.060307
vt 0.000000 0.173648
vt 1.000000 0.173648
vt 0.000000 0.326352
vt 1.000000 0.326352
vn -1.000000 0.000000 0.000000
vn 0.000000 0.173648 -0.984808
vn 0.000000 0.173648 -0.984808
vn 1.000000 0.000000 0.000000
vn -1.000000 0.000000 0.000000
vn 0.000000 0.500000 -0.866025
vn 0.000000 0.500000 -0.866025
vn 1.000000 0.000000 -0.000000
vn -1.000000 0.000000 0.000000
vn 0.000000 0.766044 -0.642788
vn 0.000000 0.766044 -0.642788
vn 1.000000 0.000000 -0.000000
vn -1.000000 0.000000 0.000000
vn 0.000000 0.939693 -0.342020
vn 0.000000 0.939693 -0.342020
vn 1.000000 0.000000 -0.000000
vn -1.000000 0.000000 0.000000
vn 0.000000 1.000000 0.000000
vn 0.000000 1.000000 -0.000000
vn 1.000000 0.000000 -0.000000
vn -1.000000 -0.000000 0.000000
vn -0.000000 0.939693 0.342020
vn 0.000000 0.939693 0.342020
vn 1.000000 0.000000 0.000000
vn -1.000000 -0.000000 0.000000
vn -0.000000 0.766044 0.642788
vn 0.000000 0.766044 0.642788
vn 1.000000 0.000000 0.000000
vn -1.000000 -0.000000 0.000000
vn -0.000000 0.500000 0.866025
vn 0.000000 0.500000 0.866025
vn 1.000000 0.000000 0.000000
vn -1.000000 -0.000000 0.000000
vn -0.000000 0.173648 0.984808
vn 0.000000 0.173648 0.984808
vn 1.000000 0.000000 0.000000
vn -1.000000 0.000000 -0.000000
vn 0.000000 -0.173648 0.984808
vn 0.000000 -0.173648 0.984808
vn 1.000000 0.000000 0.000000
vn -1.000000 0.000000 -0.000000
vn 0.000000 -0.500000 0.866025
vn 0.000000 -0.500000 0.866025
vn 1.000000 0.000000 0.000000
vn -1.000000 0.000000 -0.000000
vn 0.000000 -0.766044 0.642788
vn 0.000000 -0.766044 0.642788
vn 1.000000 0.000000 0.000000
vn -1.000000 0.000000 -0.000000
vn 0.000000 -0.939693 0.342020
vn 0.000000 -0.939693 0.342020
vn 1.000000 0.000000 0.000000
vn -1.000000 0.000000 0.000000
vn 0.000000 -1.000000 0.000000
vn 0.000000 -1.000000 -0.000000
vn 1.000000 0.000000 0.000000
vn -1.000000 0.000000 0.000000
vn 0.000000 -0.939693 -0.342020
vn 0.000000 -0.939693 -0.342020
vn 1.000000 -0.000000 0.000000
vn -1.000000 0.000000 0.000000
vn 0.000000 -0.766044 -0.642788
vn 0.000000 -0.766044 -0.642788
vn 1.000000 -0.000000 0.000000
vn -1.000000 0.000000 0.000000
vn 0.000000 -0.500000 -0.866025
vn 0.000000 -0.500000 -0.866025
vn 1.000000 -0.000000 0.000000
vn -1.000000 0.000000 0.000000
vn 0.000000 -0.173648 -0.984808
vn 0.000000 -0.173648 -0.984808
vn 1.000000 -0.000000 0.000000
f 318/318/505 317/317/505 321/321/505
f 318/318/506 321/321/506 319/319/506
f 319/319/507 321/321/507 322/322/507
f 319/319/508 322/322/508 320/320/508
f 321/321/509 317/317/509 323/323/509
f 321/321/510 323/323/510 322/322/510
f 322/322/511 323/323/511 324/324/511
f 322/322/512 324/324/512 320/320/512
f 323/323/513 317/317/513 325/325/513
f 323/323/514 325/325/514 324/324/514
f 324/324/515 325/325/515 326/326/515
f 324/324/516 326/326/516 320/320/516
f 325/325/517 317/317/517 327/327/517
f 325/325/518 327/327/518 326/326/518
f 326/326/519 327/327/519 328/328/519
f 326/326/520 328/328/520 320/320/520
f 327/327/521 317/317/521 329/329/521
f 327/327/522 329/329/522 328/328/522
f 328/328/523 329/329/523 330/330/523
f 328/328/524 330/330/524 320/320/524
f 329/329/525 317/317/525 331/331/525
f 329/329/526 331/331/526 330/330/526
f 330/330/527 331/331/527 332/332/527
f 330/330/528 332/332/528 320/320/528
f 331/331/529 317/317/529 333/333/529
f 331/331/530 333/333/530 332/332/530
f 332/332/531 333/333/531 334/334/531
f 332/332/532 334/334/532 320/320/532
f 333/333/533 317/317/533 335/335/533
f 333/333/534 335/335/534 334/334/534
f 334/334/535 335/335/535 336/336/535
f 334/334/536 336/336/536 320/320/536
f 335/335/537 317/317/537 337/337/537
f 335/335/538 337/337/538 336/336/538
f 336/336/539 337/337/539 338/338/539
f 336/336/540 338/338/540 320/320/540
f 337/337/541 317/317/541 339/339/541
f 337/337/542 339/339/542 338/338/542
f 338/338/543 339/339/543 340/340/543
f 338/338/544 340/340/544 320/320/544
f 339/339/545 317/317/545 341/341/545
f 339/339/546 341/341/546 340/340/546
f 340/340/547 341/341/547 342/342/547
f 340/340/548 342/342/548 320/320/548
f 341/341/549 317/317/549 343/343/549
f 341/341/550 343/343/550 342/342/550
f 342/342/551 343/343/551 344/344/551
f 342/342/552 344/344/552 320/320/552
f 343/343/553 317/317/553 345/345/553
f 343/343/554 345/345/554 344/344/554
f 344/344/555 345/345/555 346/346/555
f 344/344/556 346/346/556 320/320/556
f 345/345/557 317/317/557 347/347/557
f 345/345/558 347/347/558 346/346/558
f 346/346/559 347/347/559 348/348/559
f 346/346/560 348/348/560 320/320/560
f 347/347/561 317/317/561 349/349/561
f 347/347/562 349/349/562 348/348/562
f 348/348/563 349/349/563 350/350/563
f 348/348/564 350/350/564 320/320/564
f 349/349/565 317/317/565 351/351/565
f 349/349/566 351/351/566 350/350/566
f 350/350/567 351/351/567 352/352/567
f 350/350/568 352/352/568 320/320/568
f 351/351/569 317/317/569 353/353/569
f 351/351/570 353/353/570 352/352/570
f 352/352/571 353/353/571 354/354/571
f 352/352/572 354/354/572 320/320/572
f 353/353/573 317/317/573 318/318/573
f 353/353/574 318/318/574 354/354/574
f 354/354/575 318/318/575 319/319/575
f 354/354/576 319/319/576 320/320/576

o Right_SideCap_2
usemtl WhiteCap
v 55.731250 144.135500 -10.544175
v 55.731250 144.135500 -10.994175
v 55.841250 144.135500 -10.994175
v 55.841250 144.135500 -10.544175
v 55.731250 144.289409 -10.967037
v 55.841250 144.289409 -10.967037
v 55.731250 144.424754 -10.888895
v 55.841250 144.424754 -10.888895
v 55.731250 144.525211 -10.769175
v 55.841250 144.525211 -10.769175
v 55.731250 144.578663 -10.622317
v 55.841250 144.578663 -10.622317
v 55.731250 144.578663 -10.466033
v 55.841250 144.578663 -10.466033
v 55.731250 144.525211 -10.319175
v 55.841250 144.525211 -10.319175
v 55.731250 144.424754 -10.199455
v 55.841250 144.424754 -10.199455
v 55.731250 144.289409 -10.121313
v 55.841250 144.289409 -10.121313
v 55.731250 144.135500 -10.094175
v 55.841250 144.135500 -10.094175
v 55.731250 143.981591 -10.121313
v 55.841250 143.981591 -10.121313
v 55.731250 143.846246 -10.199455
v 55.841250 143.846246 -10.199455
v 55.731250 143.745789 -10.319175
v 55.841250 143.745789 -10.319175
v 55.731250 143.692337 -10.466033
v 55.841250 143.692337 -10.466033
v 55.731250 143.692337 -10.622317
v 55.841250 143.692337 -10.622317
v 55.731250 143.745789 -10.769175
v 55.841250 143.745789 -10.769175
v 55.731250 143.846246 -10.888895
v 55.841250 143.846246 -10.888895
v 55.731250 143.981591 -10.967037
v 55.841250 143.981591 -10.967037
vt 0.000000 0.500000
vt 0.000000 0.500000
vt 1.000000 0.500000
vt 1.000000 0.500000
vt 0.000000 0.673648
vt 1.000000 0.673648
vt 0.000000 0.826352
vt 1.000000 0.826352
vt 0.000000 0.939693
vt 1.000000 0.939693
vt 0.000000 1.000000
vt 1.000000 1.000000
vt 0.000000 1.000000
vt 1.000000 1.000000
vt 0.000000 0.939693
vt 1.000000 0.939693
vt 0.000000 0.826352
vt 1.000000 0.826352
vt 0.000000 0.673648
vt 1.000000 0.673648
vt 0.000000 0.500000
vt 1.000000 0.500000
vt 0.000000 0.326352
vt 1.000000 0.326352
vt 0.000000 0.173648
vt 1.000000 0.173648
vt 0.000000 0.060307
vt 1.000000 0.060307
vt 0.000000 0.000000
vt 1.000000 0.000000
vt 0.000000 0.000000
vt 1.000000 0.000000
vt 0.000000 0.060307
vt 1.000000 0.060307
vt 0.000000 0.173648
vt 1.000000 0.173648
vt 0.000000 0.326352
vt 1.000000 0.326352
vn -1.000000 0.000000 0.000000
vn 0.000000 0.173648 -0.984808
vn 0.000000 0.173648 -0.984808
vn 1.000000 0.000000 0.000000
vn -1.000000 0.000000 0.000000
vn 0.000000 0.500000 -0.866025
vn 0.000000 0.500000 -0.866025
vn 1.000000 0.000000 -0.000000
vn -1.000000 0.000000 0.000000
vn 0.000000 0.766044 -0.642788
vn 0.000000 0.766044 -0.642788
vn 1.000000 0.000000 -0.000000
vn -1.000000 0.000000 0.000000
vn 0.000000 0.939693 -0.342020
vn 0.000000 0.939693 -0.342020
vn 1.000000 0.000000 -0.000000
vn -1.000000 0.000000 0.000000
vn 0.000000 1.000000 0.000000
vn 0.000000 1.000000 -0.000000
vn 1.000000 0.000000 -0.000000
vn -1.000000 -0.000000 0.000000
vn -0.000000 0.939693 0.342020
vn 0.000000 0.939693 0.342020
vn 1.000000 0.000000 0.000000
vn -1.000000 -0.000000 0.000000
vn -0.000000 0.766044 0.642788
vn 0.000000 0.766044 0.642788
vn 1.000000 0.000000 0.000000
vn -1.000000 -0.000000 0.000000
vn -0.000000 0.500000 0.866025
vn 0.000000 0.500000 0.866025
vn 1.000000 0.000000 0.000000
vn -1.000000 -0.000000 0.000000
vn -0.000000 0.173648 0.984808
vn 0.000000 0.173648 0.984808
vn 1.000000 0.000000 0.000000
vn -1.000000 0.000000 -0.000000
vn 0.000000 -0.173648 0.984808
vn 0.000000 -0.173648 0.984808
vn 1.000000 0.000000 0.000000
vn -1.000000 0.000000 -0.000000
vn 0.000000 -0.500000 0.866025
vn 0.000000 -0.500000 0.866025
vn 1.000000 0.000000 0.000000
vn -1.000000 0.000000 -0.000000
vn 0.000000 -0.766044 0.642788
vn 0.000000 -0.766044 0.642788
vn 1.000000 0.000000 0.000000
vn -1.000000 0.000000 -0.000000
vn 0.000000 -0.939693 0.342020
vn 0.000000 -0.939693 0.342020
vn 1.000000 0.000000 0.000000
vn -1.000000 0.000000 0.000000
vn 0.000000 -1.000000 0.000000
vn 0.000000 -1.000000 -0.000000
vn 1.000000 0.000000 0.000000
vn -1.000000 0.000000 0.000000
vn 0.000000 -0.939693 -0.342020
vn 0.000000 -0.939693 -0.342020
vn 1.000000 -0.000000 0.000000
vn -1.000000 0.000000 0.000000
vn 0.000000 -0.766044 -0.642788
vn 0.000000 -0.766044 -0.642788
vn 1.000000 -0.000000 0.000000
vn -1.000000 0.000000 0.000000
vn 0.000000 -0.500000 -0.866025
vn 0.000000 -0.500000 -0.866025
vn 1.000000 -0.000000 0.000000
vn -1.000000 0.000000 0.000000
vn 0.000000 -0.173648 -0.984808
vn 0.000000 -0.173648 -0.984808
vn 1.000000 -0.000000 0.000000
f 356/356/577 355/355/577 359/359/577
f 356/356/578 359/359/578 357/357/578
f 357/357/579 359/359/579 360/360/579
f 357/357/580 360/360/580 358/358/580
f 359/359/581 355/355/581 361/361/581
f 359/359/582 361/361/582 360/360/582
f 360/360/583 361/361/583 362/362/583
f 360/360/584 362/362/584 358/358/584
f 361/361/585 355/355/585 363/363/585
f 361/361/586 363/363/586 362/362/586
f 362/362/587 363/363/587 364/364/587
f 362/362/588 364/364/588 358/358/588
f 363/363/589 355/355/589 365/365/589
f 363/363/590 365/365/590 364/364/590
f 364/364/591 365/365/591 366/366/591
f 364/364/592 366/366/592 358/358/592
f 365/365/593 355/355/593 367/367/593
f 365/365/594 367/367/594 366/366/594
f 366/366/595 367/367/595 368/368/595
f 366/366/596 368/368/596 358/358/596
f 367/367/597 355/355/597 369/369/597
f 367/367/598 369/369/598 368/368/598
f 368/368/599 369/369/599 370/370/599
f 368/368/600 370/370/600 358/358/600
f 369/369/601 355/355/601 371/371/601
f 369/369/602 371/371/602 370/370/602
f 370/370/603 371/371/603 372/372/603
f 370/370/604 372/372/604 358/358/604
f 371/371/605 355/355/605 373/373/605
f 371/371/606 373/373/606 372/372/606
f 372/372/607 373/373/607 374/374/607
f 372/372/608 374/374/608 358/358/608
f 373/373/609 355/355/609 375/375/609
f 373/373/610 375/375/610 374/374/610
f 374/374/611 375/375/611 376/376/611
f 374/374/612 376/376/612 358/358/612
f 375/375/613 355/355/613 377/377/613
f 375/375/614 377/377/614 376/376/614
f 376/376/615 377/377/615 378/378/615
f 376/376/616 378/378/616 358/358/616
f 377/377/617 355/355/617 379/379/617
f 377/377/618 379/379/618 378/378/618
f 378/378/619 379/379/619 380/380/619
f 378/378/620 380/380/620 358/358/620
f 379/379/621 355/355/621 381/381/621
f 379/379/622 381/381/622 380/380/622
f 380/380/623 381/381/623 382/382/623
f 380/380/624 382/382/624 358/358/624
f 381/381/625 355/355/625 383/383/625
f 381/381/626 383/383/626 382/382/626
f 382/382/627 383/383/627 384/384/627
f 382/382/628 384/384/628 358/358/628
f 383/383/629 355/355/629 385/385/629
f 383/383/630 385/385/630 384/384/630
f 384/384/631 385/385/631 386/386/631
f 384/384/632 386/386/632 358/358/632
f 385/385/633 355/355/633 387/387/633
f 385/385/634 387/387/634 386/386/634
f 386/386/635 387/387/635 388/388/635
f 386/386/636 388/388/636 358/358/636
f 387/387/637 355/355/637 389/389/637
f 387/387/638 389/389/638 388/388/638
f 388/388/639 389/389/639 390/390/639
f 388/388/640 390/390/640 358/358/640
f 389/389/641 355/355/641 391/391/641
f 389/389/642 391/391/642 390/390/642
f 390/390/643 391/391/643 392/392/643
f 390/390/644 392/392/644 358/358/644
f 391/391/645 355/355/645 356/356/645
f 391/391/646 356/356/646 392/392/646
f 392/392/647 356/356/647 357/357/647
f 392/392/648 357/357/648 358/358/648

o WallBracket_Left_Vertical
usemtl Steel
v -50.771250 140.167500 18.916250
v -49.071250 140.167500 18.916250
v -49.071250 142.467500 18.916250
v -50.771250 142.467500 18.916250
v -50.771250 140.167500 19.236250
v -49.071250 140.167500 19.236250
v -49.071250 142.467500 19.236250
v -50.771250 142.467500 19.236250
vt 0.000000 0.000000
vt 1.000000 0.000000
vt 1.000000 1.000000
vt 0.000000 1.000000
vt 0.000000 0.000000
vt 1.000000 0.000000
vt 1.000000 1.000000
vt 0.000000 1.000000
vn 0.000000 0.000000 -1.000000
vn 0.000000 0.000000 -1.000000
vn 0.000000 0.000000 1.000000
vn 0.000000 0.000000 1.000000
vn 0.000000 -1.000000 0.000000
vn 0.000000 -1.000000 0.000000
vn 0.000000 1.000000 0.000000
vn 0.000000 1.000000 0.000000
vn -1.000000 0.000000 0.000000
vn -1.000000 0.000000 0.000000
vn 1.000000 0.000000 0.000000
vn 1.000000 0.000000 0.000000
f 393/393/649 395/395/649 394/394/649
f 393/393/650 396/396/650 395/395/650
f 397/397/651 398/398/651 399/399/651
f 397/397/652 399/399/652 400/400/652
f 393/393/653 394/394/653 398/398/653
f 393/393/654 398/398/654 397/397/654
f 396/396/655 400/400/655 399/399/655
f 396/396/656 399/399/656 395/395/656
f 393/393/657 397/397/657 400/400/657
f 393/393/658 400/400/658 396/396/658
f 394/394/659 395/395/659 399/399/659
f 394/394/660 399/399/660 398/398/660

o WallBracket_Left_Top
usemtl Steel
v -50.771250 142.157500 17.376250
v -49.071250 142.157500 17.376250
v -49.071250 142.477500 17.376250
v -50.771250 142.477500 17.376250
v -50.771250 142.157500 19.176250
v -49.071250 142.157500 19.176250
v -49.071250 142.477500 19.176250
v -50.771250 142.477500 19.176250
vt 0.000000 0.000000
vt 1.000000 0.000000
vt 1.000000 1.000000
vt 0.000000 1.000000
vt 0.000000 0.000000
vt 1.000000 0.000000
vt 1.000000 1.000000
vt 0.000000 1.000000
vn 0.000000 0.000000 -1.000000
vn 0.000000 0.000000 -1.000000
vn 0.000000 0.000000 1.000000
vn 0.000000 0.000000 1.000000
vn 0.000000 -1.000000 0.000000
vn 0.000000 -1.000000 0.000000
vn 0.000000 1.000000 0.000000
vn 0.000000 1.000000 0.000000
vn -1.000000 0.000000 0.000000
vn -1.000000 0.000000 0.000000
vn 1.000000 0.000000 0.000000
vn 1.000000 0.000000 0.000000
f 401/401/661 403/403/661 402/402/661
f 401/401/662 404/404/662 403/403/662
f 405/405/663 406/406/663 407/407/663
f 405/405/664 407/407/664 408/408/664
f 401/401/665 402/402/665 406/406/665
f 401/401/666 406/406/666 405/405/666
f 404/404/667 408/408/667 407/407/667
f 404/404/668 407/407/668 403/403/668
f 401/401/669 405/405/669 408/408/669
f 401/401/670 408/408/670 404/404/670
f 402/402/671 403/403/671 407/407/671
f 402/402/672 407/407/672 406/406/672

o WallBracket_Right_Vertical
usemtl Steel
v 49.071250 140.167500 18.916250
v 50.771250 140.167500 18.916250
v 50.771250 142.467500 18.916250
v 49.071250 142.467500 18.916250
v 49.071250 140.167500 19.236250
v 50.771250 140.167500 19.236250
v 50.771250 142.467500 19.236250
v 49.071250 142.467500 19.236250
vt 0.000000 0.000000
vt 1.000000 0.000000
vt 1.000000 1.000000
vt 0.000000 1.000000
vt 0.000000 0.000000
vt 1.000000 0.000000
vt 1.000000 1.000000
vt 0.000000 1.000000
vn 0.000000 0.000000 -1.000000
vn 0.000000 0.000000 -1.000000
vn 0.000000 0.000000 1.000000
vn 0.000000 0.000000 1.000000
vn 0.000000 -1.000000 0.000000
vn 0.000000 -1.000000 0.000000
vn 0.000000 1.000000 0.000000
vn 0.000000 1.000000 0.000000
vn -1.000000 0.000000 0.000000
vn -1.000000 0.000000 0.000000
vn 1.000000 0.000000 0.000000
vn 1.000000 0.000000 0.000000
f 409/409/673 411/411/673 410/410/673
f 409/409/674 412/412/674 411/411/674
f 413/413/675 414/414/675 415/415/675
f 413/413/676 415/415/676 416/416/676
f 409/409/677 410/410/677 414/414/677
f 409/409/678 414/414/678 413/413/678
f 412/412/679 416/416/679 415/415/679
f 412/412/680 415/415/680 411/411/680
f 409/409/681 413/413/681 416/416/681
f 409/409/682 416/416/682 412/412/682
f 410/410/683 411/411/683 415/415/683
f 410/410/684 415/415/684 414/414/684

o WallBracket_Right_Top
usemtl Steel
v 49.071250 142.157500 17.376250
v 50.771250 142.157500 17.376250
v 50.771250 142.477500 17.376250
v 49.071250 142.477500 17.376250
v 49.071250 142.157500 19.176250
v 50.771250 142.157500 19.176250
v 50.771250 142.477500 19.176250
v 49.071250 142.477500 19.176250
vt 0.000000 0.000000
vt 1.000000 0.000000
vt 1.000000 1.000000
vt 0.000000 1.000000
vt 0.000000 0.000000
vt 1.000000 0.000000
vt 1.000000 1.000000
vt 0.000000 1.000000
vn 0.000000 0.000000 -1.000000
vn 0.000000 0.000000 -1.000000
vn 0.000000 0.000000 1.000000
vn 0.000000 0.000000 1.000000
vn 0.000000 -1.000000 0.000000
vn 0.000000 -1.000000 0.000000
vn 0.000000 1.000000 0.000000
vn 0.000000 1.000000 0.000000
vn -1.000000 0.000000 0.000000
vn -1.000000 0.000000 0.000000
vn 1.000000 0.000000 0.000000
vn 1.000000 0.000000 0.000000
f 417/417/685 419/419/685 418/418/685
f 417/417/686 420/420/686 419/419/686
f 421/421/687 422/422/687 423/423/687
f 421/421/688 423/423/688 424/424/688
f 417/417/689 418/418/689 422/422/689
f 417/417/690 422/422/690 421/421/690
f 420/420/691 424/424/691 423/423/691
f 420/420/692 423/423/692 419/419/692
f 417/417/693 421/421/693 424/424/693
f 417/417/694 424/424/694 420/420/694
f 418/418/695 419/419/695 423/423/695
f 418/418/696 423/423/696 422/422/696
